<svg viewBox="0 0 100 100" version="1.1" xmlns="http://www.w3.org/2000/svg">
    <polygon fill="#8C3123"
             points="42.1236111 74.1027778 76.8222222 82.4986111 76.8222222 17.35 42.1236111 25.7513889"/>
    <polygon fill="#E05243"
             points="76.8236111 17.35 83.4916667 20.6833333 83.4916667 79.1847222 76.8236111 82.5166667"/>
    <polygon fill="#E05243"
             points="57.2583333 28.9666667 42.1236111 25.2222222 42.1236111 0 57.2583333 7.56666667"/>
    <polygon fill="#E05243"
             points="42.1236111 100 57.2569444 92.4361111 57.2569444 71.0361111 42.1236111 74.7791667"/>
    <polygon fill="#E05243"
             points="57.2583333 60.7138889 42.1236111 62.6402778 42.1236111 37.4166667 57.2583333 39.3152778"/>
    <polygon fill="#E05243"
             points="42.1236111 74.1027778 7.42361111 82.4986111 7.42361111 17.35 42.1236111 25.7513889"/>
    <polygon fill="#8C3123"
             points="7.42361111 17.35 0.758333333 20.6833333 0.758333333 79.1847222 7.42361111 82.5166667"/>
    <polygon fill="#8C3123"
             points="26.9930556 28.9666667 42.1236111 25.2222222 42.1236111 0 26.9930556 7.56666667"/>
    <polygon fill="#8C3123"
             points="42.1236111 100 26.9916667 92.4361111 26.9916667 71.0361111 42.1236111 74.7791667"/>
    <polygon fill="#8C3123"
             points="26.9930556 60.7138889 42.1236111 62.6402778 42.1236111 37.4166667 26.9930556 39.3152778"/>
    <polygon fill="#5E1F18"
             points="57.2583333 28.9666667 42.1236111 31.725 26.9930556 28.9666667 42.1236111 25.2222222"/>
    <polygon fill="#F2B0A9"
             points="57.2583333 71.0347222 42.1236111 68.2583333 26.9930556 71.0347222 42.1236111 74.8027778"/>
</svg>